<svg width="34" height="34" viewBox="0 0 34 34" fill="none" xmlns="http://www.w3.org/2000/svg">
<path d="M16.1889 0.354933C14.1442 0.570755 12.9186 2.63267 13.409 4.62934L13.9681 6.90574C14.1776 7.75862 15.0598 8.216 15.9288 8.08885C19.3129 7.59365 22.6896 9.51783 24.5831 12.285C27.9273 17.1721 25.5065 24.3201 19.8978 25.5636C19.3824 25.6779 18.8772 25.8532 18.371 26.0028C15.8042 26.7616 11.6776 25.2703 9.76381 22.9711C4.9495 17.1873 11.601 7.18529 5.9633 2.18806C4.86791 1.21711 0.32493 -1.43939 0.324899 1.00785C0.324789 9.78579 -1.81908 21.4137 4.91396 28.6755C7.3805 31.1603 11.0046 32.9663 14.4359 33.4833C19.1232 34.1896 24.8647 32.6111 28.3855 29.4625C31.3203 26.8381 33.0518 22.9672 33.4995 19.1037C34.197 13.0856 31.4916 7.06734 26.6028 3.40671C23.928 1.40389 20.4103 0.192278 17.064 0.291987C16.7911 0.300116 16.4949 0.322634 16.1889 0.354933Z" fill="#E37B2C"/>
<path d="M17.9324 33.8278C19.93 33.5432 21.0406 31.4821 20.5593 29.5225L19.9651 27.1028C19.7556 26.2499 18.8733 25.7925 18.0044 25.9197C14.6202 26.4149 11.2436 24.4907 9.35001 21.7235C5.8528 16.6128 9.47939 8.93509 15.6443 8.21766C18.8193 7.84817 21.5326 8.69848 23.6429 11.2337C28.4572 17.0174 22.3321 26.8233 27.9699 31.8205C29.0653 32.7914 33.6082 35.4479 33.6083 33.0007C33.6084 24.2228 35.9871 12.3526 29.0192 5.33305C26.5527 2.84821 22.8782 0.867196 19.447 0.350167C14.7597 -0.35613 9.06847 1.39747 5.54766 4.546C2.61287 7.17048 0.881396 11.0413 0.433615 14.9049C-0.263875 20.923 2.36318 27.1106 7.25197 30.7712C9.92674 32.774 13.609 34.0181 16.9553 33.9184C17.2603 33.9093 17.5921 33.8762 17.9324 33.8278Z" fill="#2E43FF"/>
</svg>
